<svg xmlns="http://www.w3.org/2000/svg" xmlns:v="https://svgstorm.com"
viewBox = "0 0 512 512"
width="512"
height="512">
<g fill="None" fill-opacity="0.0" stroke="#000000" stroke-opacity="0.07" stroke-width="0.3"><path d="
M 0.00 33.00 
C 1.23 14.53 13.83 1.78 32.00 0.00
L 0.00 0.00
L 0.00 33.00 Z"/>
</g>
<g fill="None" fill-opacity="0.0" stroke="#000000" stroke-opacity="0.99" stroke-width="0.3"><path d="
M 0.00 33.00 
L 0.00 216.00
C 2.14 225.48 5.01 233.38 13.90 240.10 C 22.79 246.81 27.61 245.85 42.00 246.00 C 56.39 246.15 75.90 245.88 91.00 246.00 C 106.10 246.12 123.87 245.84 139.00 246.00 C 154.13 246.16 173.52 245.68 188.00 246.00 C 202.48 246.32 216.59 246.70 225.30 243.29 C 234.00 239.88 238.97 235.27 243.13 227.08 C 247.29 218.90 247.23 203.26 247.00 190.00 C 246.77 176.74 247.07 154.37 247.00 142.00 C 246.93 129.63 249.06 112.71 237.00 113.00
C 221.21 113.38 225.47 137.65 226.00 151.00 C 226.53 164.35 223.83 184.32 226.00 200.00 C 228.17 215.68 220.80 229.11 203.00 226.00 C 185.20 222.89 170.65 227.40 154.00 226.00 C 137.35 224.60 120.72 226.62 105.00 226.00 C 89.28 225.38 70.38 226.25 56.00 226.00 C 41.62 225.75 21.43 230.01 20.01 212.99 C 18.59 195.98 20.38 179.31 20.00 163.00 C 19.62 146.69 19.55 129.43 20.00 114.00 C 20.45 98.57 18.42 78.95 20.00 65.00 C 21.58 51.05 13.56 30.24 26.25 22.25 C 38.94 14.26 58.06 21.98 73.00 20.00 C 87.94 18.02 106.49 20.59 122.00 20.00 C 137.51 19.41 155.46 19.60 171.00 20.00 C 186.54 20.40 204.01 17.73 218.68 21.32 C 233.34 24.91 218.43 53.14 237.00 53.00
C 249.78 52.90 247.81 29.26 243.41 20.25 C 239.01 11.24 227.38 0.20 216.00 0.00
L 32.00 0.00
C 13.83 1.78 1.23 14.53 0.00 33.00 Z"/>
</g>
<g fill="None" fill-opacity="0.0" stroke="#000000" stroke-opacity="0.02" stroke-width="0.3"><path d="
M 237.00 53.00 
C 234.82 58.06 238.63 65.70 237.00 71.00
C 247.40 70.76 248.92 90.67 237.00 92.00
C 234.45 97.90 238.91 106.82 237.00 113.00
C 249.06 112.71 246.93 129.63 247.00 142.00 C 247.07 154.37 246.77 176.74 247.00 190.00 C 247.23 203.26 247.29 218.90 243.13 227.08 C 238.97 235.27 234.00 239.88 225.30 243.29 C 216.59 246.70 202.48 246.32 188.00 246.00 C 173.52 245.68 154.13 246.16 139.00 246.00 C 123.87 245.84 106.10 246.12 91.00 246.00 C 75.90 245.88 56.39 246.15 42.00 246.00 C 27.61 245.85 22.79 246.81 13.90 240.10 C 5.01 233.38 2.14 225.48 0.00 216.00
L 0.00 298.00
C 2.18 284.71 7.12 274.03 20.25 268.81 C 33.38 263.59 53.37 266.55 72.00 266.00 C 90.63 265.45 116.60 266.46 136.00 266.00 C 155.40 265.54 180.00 266.67 199.00 266.00 C 218.00 265.33 226.48 265.79 236.75 276.25 C 247.03 286.70 246.95 295.53 247.00 315.00 C 247.05 334.48 247.11 358.33 247.00 378.00 C 246.89 397.67 247.33 423.12 247.00 442.00 C 246.67 460.88 248.86 479.05 243.81 492.25 C 238.75 505.44 227.90 508.45 216.00 512.00
L 299.00 512.00
C 285.68 510.04 274.89 505.93 268.87 493.08 C 262.85 480.23 265.29 461.80 265.00 443.00 C 264.71 424.20 264.92 398.54 265.00 379.00 C 265.08 359.46 264.50 334.09 265.00 315.00 C 265.50 295.91 264.22 287.09 274.26 276.25 C 284.30 265.41 293.32 265.71 312.00 266.00 C 330.68 266.29 356.66 265.54 376.00 266.00 C 395.34 266.46 421.32 265.05 440.00 266.00 C 458.68 266.95 479.15 262.85 492.25 268.19 C 505.35 273.54 509.71 285.73 512.00 298.00
L 512.00 216.00
C 508.68 228.26 504.91 238.05 491.75 243.19 C 478.58 248.33 458.58 245.56 440.00 246.00 C 421.42 246.44 395.26 245.74 376.00 246.00 C 356.74 246.26 331.66 245.75 313.00 246.00 C 294.34 246.25 284.85 246.87 274.90 236.10 C 264.95 225.33 265.40 217.87 265.00 199.00 C 264.60 180.13 265.17 155.39 265.00 136.00 C 264.83 116.61 265.06 90.73 265.00 72.00 C 264.94 53.27 263.53 33.95 268.76 20.75 C 273.98 7.55 284.15 2.03 298.00 0.00
L 216.00 0.00
C 227.38 0.20 239.01 11.24 243.41 20.25 C 247.81 29.26 249.78 52.90 237.00 53.00 Z"/>
</g>
<g fill="None" fill-opacity="0.0" stroke="#000000" stroke-opacity="0.99" stroke-width="0.3"><path d="
M 512.00 216.00 
L 512.00 33.00
C 511.02 15.08 498.72 3.06 482.00 0.00
L 298.00 0.00
C 284.15 2.03 273.98 7.55 268.76 20.75 C 263.53 33.95 264.94 53.27 265.00 72.00 C 265.06 90.73 264.83 116.61 265.00 136.00 C 265.17 155.39 264.60 180.13 265.00 199.00 C 265.40 217.87 264.95 225.33 274.90 236.10 C 284.85 246.87 294.34 246.25 313.00 246.00 C 331.66 245.75 356.74 246.26 376.00 246.00 C 395.26 245.74 421.42 246.44 440.00 246.00 C 458.58 245.56 478.58 248.33 491.75 243.19 C 504.91 238.05 508.68 228.26 512.00 216.00
M 482.00 20.00 
C 497.56 23.86 490.84 44.68 492.00 58.00 C 493.16 71.32 491.09 90.84 492.00 106.00 C 492.91 121.16 490.74 138.77 492.00 155.00 C 493.26 171.23 489.51 185.60 492.00 203.00 C 494.49 220.40 482.82 228.47 466.00 226.00 C 449.18 223.53 434.16 227.03 418.00 226.00 C 401.84 224.97 384.53 226.33 369.00 226.00 C 353.47 225.67 335.41 225.83 321.00 226.00 C 306.59 226.17 286.52 229.29 286.00 212.00 C 285.48 194.70 285.92 180.31 286.00 164.00 C 286.08 147.69 285.30 130.48 286.00 115.00 C 286.70 99.52 284.16 81.13 286.00 67.00 C 287.84 52.87 279.62 31.84 291.08 23.08 C 302.54 14.33 321.45 21.58 336.00 20.00 C 350.55 18.42 369.75 20.10 385.00 20.00 C 400.25 19.90 417.64 18.61 433.00 20.00 C 448.36 21.39 467.05 16.30 482.00 20.00 Z"/>
</g>
<g fill="None" fill-opacity="0.0" stroke="#000000" stroke-opacity="0.07" stroke-width="0.3"><path d="
M 512.00 33.00 
L 512.00 0.00
L 482.00 0.00
C 498.72 3.06 511.02 15.08 512.00 33.00 Z"/>
</g>
<g fill="None" fill-opacity="0.0" stroke="#FDD26B" stroke-opacity="1.00" stroke-width="0.3"><path d="
M 237.00 113.00 
C 238.91 106.82 234.45 97.90 237.00 92.00
C 224.19 93.43 222.72 71.33 237.00 71.00
C 238.63 65.70 234.82 58.06 237.00 53.00
C 218.43 53.14 233.34 24.91 218.68 21.32 C 204.01 17.73 186.54 20.40 171.00 20.00 C 155.46 19.60 137.51 19.41 122.00 20.00 C 106.49 20.59 87.94 18.02 73.00 20.00 C 58.06 21.98 38.94 14.26 26.25 22.25 C 13.56 30.24 21.58 51.05 20.00 65.00 C 18.42 78.95 20.45 98.57 20.00 114.00 C 19.55 129.43 19.62 146.69 20.00 163.00 C 20.38 179.31 18.59 195.98 20.01 212.99 C 21.43 230.01 41.62 225.75 56.00 226.00 C 70.38 226.25 89.28 225.38 105.00 226.00 C 120.72 226.62 137.35 224.60 154.00 226.00 C 170.65 227.40 185.20 222.89 203.00 226.00 C 220.80 229.11 228.17 215.68 226.00 200.00 C 223.83 184.32 226.53 164.35 226.00 151.00 C 225.47 137.65 221.21 113.38 237.00 113.00
M 152.00 94.00 
C 159.69 93.21 170.63 95.05 178.00 94.00 C 185.37 92.95 195.27 94.97 195.93 103.07 C 196.58 111.18 196.40 121.82 196.00 129.00 C 195.60 136.18 199.01 148.07 190.92 150.92 C 182.83 153.76 176.21 153.08 166.00 152.00 C 155.79 150.92 150.60 154.34 152.00 165.00 C 153.40 175.66 153.32 181.55 151.22 190.22 C 149.12 198.89 137.12 195.55 130.00 196.00 C 122.88 196.45 112.12 196.29 104.00 196.00 C 95.88 195.71 92.80 186.78 94.00 179.00 C 95.20 171.22 93.10 160.09 94.00 152.00
C 82.72 150.17 69.04 154.44 58.00 152.00 C 46.96 149.56 51.07 131.11 51.00 123.00 C 50.93 114.89 47.07 96.36 58.22 94.22 C 69.38 92.09 82.64 95.36 94.00 94.00
C 95.20 82.53 92.25 69.54 94.33 58.33 C 96.41 47.12 114.77 50.91 123.00 51.00 C 131.23 51.09 149.54 46.97 151.92 58.08 C 154.31 69.19 150.30 82.67 152.00 94.00 Z"/>
</g>
<g fill="None" fill-opacity="0.0" stroke="#F1695A" stroke-opacity="1.00" stroke-width="0.3"><path d="
M 482.00 20.00 
C 467.05 16.30 448.36 21.39 433.00 20.00 C 417.64 18.61 400.25 19.90 385.00 20.00 C 369.75 20.10 350.55 18.42 336.00 20.00 C 321.45 21.58 302.54 14.33 291.08 23.08 C 279.62 31.84 287.84 52.87 286.00 67.00 C 284.16 81.13 286.70 99.52 286.00 115.00 C 285.30 130.48 286.08 147.69 286.00 164.00 C 285.92 180.31 285.48 194.70 286.00 212.00 C 286.52 229.29 306.59 226.17 321.00 226.00 C 335.41 225.83 353.47 225.67 369.00 226.00 C 384.53 226.33 401.84 224.97 418.00 226.00 C 434.16 227.03 449.18 223.53 466.00 226.00 C 482.82 228.47 494.49 220.40 492.00 203.00 C 489.51 185.60 493.26 171.23 492.00 155.00 C 490.74 138.77 492.91 121.16 492.00 106.00 C 491.09 90.84 493.16 71.32 492.00 58.00 C 490.84 44.68 497.56 23.86 482.00 20.00
M 453.00 99.00 
C 466.13 102.99 459.44 118.90 461.00 130.00 C 462.56 141.10 462.54 158.12 448.00 157.00 C 433.46 155.88 421.96 157.41 408.00 157.00 C 394.04 156.59 382.89 156.92 369.00 157.00 C 355.11 157.08 343.28 156.42 329.00 157.00 C 314.72 157.58 314.70 141.12 316.00 130.00 C 317.30 118.88 311.30 102.39 325.00 99.00
C 337.75 95.84 353.26 98.34 367.00 98.00 C 380.74 97.66 396.25 97.21 410.00 98.00 C 423.75 98.79 440.39 95.17 453.00 99.00 Z"/>
</g>
<g fill="None" fill-opacity="0.0" stroke="#000000" stroke-opacity="1.00" stroke-width="0.3"><path d="
M 152.00 94.00 
C 150.30 82.67 154.31 69.19 151.92 58.08 C 149.54 46.97 131.23 51.09 123.00 51.00 C 114.77 50.91 96.41 47.12 94.33 58.33 C 92.25 69.54 95.20 82.53 94.00 94.00
C 82.64 95.36 69.38 92.09 58.22 94.22 C 47.07 96.36 50.93 114.89 51.00 123.00 C 51.07 131.11 46.96 149.56 58.00 152.00 C 69.04 154.44 82.72 150.17 94.00 152.00
C 93.10 160.09 95.20 171.22 94.00 179.00 C 92.80 186.78 95.88 195.71 104.00 196.00 C 112.12 196.29 122.88 196.45 130.00 196.00 C 137.12 195.55 149.12 198.89 151.22 190.22 C 153.32 181.55 153.40 175.66 152.00 165.00 C 150.60 154.34 155.79 150.92 166.00 152.00 C 176.21 153.08 182.83 153.76 190.92 150.92 C 199.01 148.07 195.60 136.18 196.00 129.00 C 196.40 121.82 196.58 111.18 195.93 103.07 C 195.27 94.97 185.37 92.95 178.00 94.00 C 170.63 95.05 159.69 93.21 152.00 94.00
M 175.00 114.00 
C 177.55 115.79 176.29 128.74 176.00 132.00
C 172.52 135.62 164.16 131.86 159.00 133.00 C 153.84 134.14 145.43 132.03 140.00 133.00
C 135.19 134.52 134.18 136.25 133.00 141.00
C 132.35 146.24 134.00 154.03 133.00 159.00 C 132.00 163.97 135.48 172.66 132.00 176.00
C 128.69 176.30 115.78 177.55 114.00 175.00
C 111.46 171.37 115.12 163.64 114.00 159.00 C 112.88 154.36 114.60 146.97 114.00 142.00 C 113.40 137.03 110.56 134.44 106.00 133.00
C 101.39 132.17 92.22 133.70 88.00 133.00 C 83.78 132.30 72.38 134.58 70.26 131.74 C 68.14 128.91 69.35 115.16 71.00 114.00
C 75.64 110.75 86.26 115.64 92.00 114.00 C 97.74 112.36 106.22 116.39 110.75 110.75 C 115.28 105.11 113.97 100.14 114.00 93.00 C 114.03 85.86 113.98 78.19 114.00 71.00
C 120.00 71.00 126.00 71.00 132.00 71.00
C 135.20 82.36 126.36 101.51 135.25 110.75 C 144.15 119.98 163.72 110.57 175.00 114.00 Z"/>
</g>
<g fill="None" fill-opacity="0.0" stroke="#E9EBEF" stroke-opacity="1.00" stroke-width="0.3"><path d="
M 71.00 114.00 
C 71.00 120.00 71.00 126.00 71.00 132.00
C 82.50 132.67 95.32 130.67 106.00 133.00
C 110.56 134.44 113.40 137.03 114.00 142.00 C 114.60 146.97 112.88 154.36 114.00 159.00 C 115.12 163.64 111.46 171.37 114.00 175.00
C 119.96 175.40 126.05 174.46 132.00 175.00
C 132.00 164.11 130.53 150.98 133.00 141.00
C 134.18 136.25 135.19 134.52 140.00 133.00
C 149.83 129.89 164.18 132.00 175.00 132.00
C 174.46 126.05 175.40 119.96 175.00 114.00
C 163.72 110.57 144.15 119.98 135.25 110.75 C 126.36 101.51 135.20 82.36 132.00 71.00
C 126.00 71.00 120.00 71.00 114.00 71.00
C 113.98 78.19 114.03 85.86 114.00 93.00 C 113.97 100.14 115.28 105.11 110.75 110.75 C 106.22 116.39 97.74 112.36 92.00 114.00 C 86.26 115.64 75.64 110.75 71.00 114.00 Z"/>
</g>
<g fill="None" fill-opacity="0.0" stroke="#000000" stroke-opacity="0.99" stroke-width="0.3"><path d="
M 237.00 92.00 
C 248.92 90.67 247.40 70.76 237.00 71.00
C 222.72 71.33 224.19 93.43 237.00 92.00 Z"/>
</g>
<g fill="None" fill-opacity="0.0" stroke="#813931" stroke-opacity="1.00" stroke-width="0.3"><path d="
M 325.00 99.00 
C 345.42 96.47 368.42 98.67 389.00 99.00 C 409.58 99.33 432.77 95.58 453.00 99.00
C 440.39 95.17 423.75 98.79 410.00 98.00 C 396.25 97.21 380.74 97.66 367.00 98.00 C 353.26 98.34 337.75 95.84 325.00 99.00 Z"/>
</g>
<g fill="None" fill-opacity="0.0" stroke="#000000" stroke-opacity="1.00" stroke-width="0.3"><path d="
M 453.00 99.00 
C 432.77 95.58 409.58 99.33 389.00 99.00 C 368.42 98.67 345.42 96.47 325.00 99.00
C 311.30 102.39 317.30 118.88 316.00 130.00 C 314.70 141.12 314.72 157.58 329.00 157.00 C 343.28 156.42 355.11 157.08 369.00 157.00 C 382.89 156.92 394.04 156.59 408.00 157.00 C 421.96 157.41 433.46 155.88 448.00 157.00 C 462.54 158.12 462.56 141.10 461.00 130.00 C 459.44 118.90 466.13 102.99 453.00 99.00
M 441.00 119.00 
C 443.82 123.03 438.89 132.48 441.00 137.00
C 406.00 137.00 371.00 137.00 336.00 137.00
C 336.66 131.17 334.68 124.01 337.00 119.00
C 340.87 115.13 351.25 118.99 357.00 118.00 C 362.75 117.01 371.82 118.24 378.00 118.00 C 384.18 117.76 392.93 117.64 399.00 118.00 C 405.07 118.36 414.65 116.81 420.00 118.00 C 425.35 119.19 438.11 114.87 441.00 119.00 Z"/>
</g>
<g fill="None" fill-opacity="0.0" stroke="#5A5A5C" stroke-opacity="1.00" stroke-width="0.3"><path d="
M 106.00 133.00 
C 95.32 130.67 82.50 132.67 71.00 132.00
C 71.00 126.00 71.00 120.00 71.00 114.00
C 69.35 115.16 68.14 128.91 70.26 131.74 C 72.38 134.58 83.78 132.30 88.00 133.00 C 92.22 133.70 101.39 132.17 106.00 133.00 Z"/>
</g>
<g fill="None" fill-opacity="0.0" stroke="#9FA0A3" stroke-opacity="1.00" stroke-width="0.3"><path d="
M 175.00 132.00 
C 175.50 132.00 176.00 132.00 176.00 132.00
C 176.29 128.74 177.55 115.79 175.00 114.00
C 175.40 119.96 174.46 126.05 175.00 132.00 Z"/>
</g>
<g fill="None" fill-opacity="0.0" stroke="#6D6E70" stroke-opacity="1.00" stroke-width="0.3"><path d="
M 337.00 119.00 
C 341.58 115.79 351.08 120.37 357.00 119.00 C 362.92 117.63 371.49 119.62 378.00 119.00 C 384.51 118.38 392.23 119.29 399.00 119.00 C 405.77 118.71 413.12 119.15 420.00 119.00 C 426.88 118.85 434.09 119.11 441.00 119.00
C 438.11 114.87 425.35 119.19 420.00 118.00 C 414.65 116.81 405.07 118.36 399.00 118.00 C 392.93 117.64 384.18 117.76 378.00 118.00 C 371.82 118.24 362.75 117.01 357.00 118.00 C 351.25 118.99 340.87 115.13 337.00 119.00 Z"/>
</g>
<g fill="None" fill-opacity="0.0" stroke="#E8EAEE" stroke-opacity="1.00" stroke-width="0.3"><path d="
M 441.00 119.00 
C 434.09 119.11 426.88 118.85 420.00 119.00 C 413.12 119.15 405.77 118.71 399.00 119.00 C 392.23 119.29 384.51 118.38 378.00 119.00 C 371.49 119.62 362.92 117.63 357.00 119.00 C 351.08 120.37 341.58 115.79 337.00 119.00
C 334.68 124.01 336.66 131.17 336.00 137.00
C 371.00 137.00 406.00 137.00 441.00 137.00
C 438.89 132.48 443.82 123.03 441.00 119.00 Z"/>
</g>
<g fill="None" fill-opacity="0.0" stroke="#5E5E60" stroke-opacity="1.00" stroke-width="0.3"><path d="
M 140.00 133.00 
C 145.43 132.03 153.84 134.14 159.00 133.00 C 164.16 131.86 172.52 135.62 176.00 132.00
C 176.00 132.00 175.50 132.00 175.00 132.00
C 164.18 132.00 149.83 129.89 140.00 133.00 Z"/>
</g>
<g fill="None" fill-opacity="0.0" stroke="#565758" stroke-opacity="1.00" stroke-width="0.3"><path d="
M 132.00 175.00 
C 132.00 175.50 132.00 176.00 132.00 176.00
C 135.48 172.66 132.00 163.97 133.00 159.00 C 134.00 154.03 132.35 146.24 133.00 141.00
C 130.53 150.98 132.00 164.11 132.00 175.00 Z"/>
</g>
<g fill="None" fill-opacity="0.0" stroke="#9C9DA0" stroke-opacity="1.00" stroke-width="0.3"><path d="
M 132.00 176.00 
C 132.00 176.00 132.00 175.50 132.00 175.00
C 126.05 174.46 119.96 175.40 114.00 175.00
C 115.78 177.55 128.69 176.30 132.00 176.00 Z"/>
</g>
<g fill="None" fill-opacity="0.0" stroke="#000000" stroke-opacity="0.99" stroke-width="0.3"><path d="
M 0.00 298.00 
L 0.00 482.00
C 2.79 498.00 13.91 509.42 30.00 512.00
L 216.00 512.00
C 227.90 508.45 238.75 505.44 243.81 492.25 C 248.86 479.05 246.67 460.88 247.00 442.00 C 247.33 423.12 246.89 397.67 247.00 378.00 C 247.11 358.33 247.05 334.48 247.00 315.00 C 246.95 295.53 247.03 286.70 236.75 276.25 C 226.48 265.79 218.00 265.33 199.00 266.00 C 180.00 266.67 155.40 265.54 136.00 266.00 C 116.60 266.46 90.63 265.45 72.00 266.00 C 53.37 266.55 33.38 263.59 20.25 268.81 C 7.12 274.03 2.18 284.71 0.00 298.00
M 217.00 286.00 
C 232.18 289.76 224.54 311.88 226.00 325.00 C 227.46 338.12 224.95 357.89 226.00 373.00 C 227.05 388.11 224.66 405.71 226.00 422.00 C 227.34 438.29 223.42 452.37 226.00 470.00 C 228.58 487.63 215.59 494.32 199.00 492.00 C 182.41 489.68 167.07 492.91 151.00 492.00 C 134.93 491.09 117.52 492.17 102.00 492.00 C 86.48 491.83 68.48 491.50 54.00 492.00 C 39.52 492.50 20.49 494.20 20.00 477.00 C 19.51 459.80 19.93 445.26 20.00 429.00 C 20.07 412.74 19.35 395.43 20.00 380.00 C 20.65 364.57 18.30 346.05 20.00 332.00 C 21.70 317.95 13.74 296.89 25.70 288.70 C 37.65 280.50 56.27 287.57 71.00 286.00 C 85.73 284.43 104.66 286.10 120.00 286.00 C 135.34 285.90 152.59 284.60 168.00 286.00 C 183.41 287.40 202.02 282.29 217.00 286.00 Z"/>
</g>
<g fill="None" fill-opacity="0.0" stroke="#000000" stroke-opacity="0.99" stroke-width="0.3"><path d="
M 299.00 512.00 
L 486.00 512.00
C 490.86 508.47 497.85 507.83 503.25 501.25 C 508.64 494.67 509.56 490.75 512.00 482.00
L 512.00 468.00
C 510.17 463.41 506.64 459.57 502.00 460.00
C 484.46 461.63 498.88 489.12 481.77 491.77 C 464.67 494.42 446.81 491.04 430.00 492.00 C 413.19 492.96 394.18 491.76 378.00 492.00 C 361.82 492.24 340.78 492.33 326.00 492.00 C 311.22 491.67 288.53 497.24 286.01 479.99 C 283.49 462.74 287.19 445.06 286.00 428.00 C 284.81 410.94 286.66 392.69 286.00 376.00 C 285.34 359.31 286.59 338.81 286.00 323.00 C 285.41 307.19 282.43 286.56 301.00 286.00 C 319.57 285.44 335.24 286.51 353.00 286.00 C 370.76 285.49 387.77 286.81 405.00 286.00 C 422.23 285.19 440.37 287.65 457.00 286.00 C 473.63 284.35 491.91 285.26 492.00 303.00 C 492.09 320.74 490.80 340.08 492.00 355.00 C 493.20 369.92 484.87 396.19 502.00 398.00
C 506.69 398.50 507.07 395.29 512.00 393.00
L 512.00 298.00
C 509.71 285.73 505.35 273.54 492.25 268.19 C 479.15 262.85 458.68 266.95 440.00 266.00 C 421.32 265.05 395.34 266.46 376.00 266.00 C 356.66 265.54 330.68 266.29 312.00 266.00 C 293.32 265.71 284.30 265.41 274.26 276.25 C 264.22 287.09 265.50 295.91 265.00 315.00 C 264.50 334.09 265.08 359.46 265.00 379.00 C 264.92 398.54 264.71 424.20 265.00 443.00 C 265.29 461.80 262.85 480.23 268.87 493.08 C 274.89 505.93 285.68 510.04 299.00 512.00 Z"/>
</g>
<g fill="None" fill-opacity="0.0" stroke="#00819F" stroke-opacity="1.00" stroke-width="0.3"><path d="
M 217.00 286.00 
C 202.02 282.29 183.41 287.40 168.00 286.00 C 152.59 284.60 135.34 285.90 120.00 286.00 C 104.66 286.10 85.73 284.43 71.00 286.00 C 56.27 287.57 37.65 280.50 25.70 288.70 C 13.74 296.89 21.70 317.95 20.00 332.00 C 18.30 346.05 20.65 364.57 20.00 380.00 C 19.35 395.43 20.07 412.74 20.00 429.00 C 19.93 445.26 19.51 459.80 20.00 477.00 C 20.49 494.20 39.52 492.50 54.00 492.00 C 68.48 491.50 86.48 491.83 102.00 492.00 C 117.52 492.17 134.93 491.09 151.00 492.00 C 167.07 492.91 182.41 489.68 199.00 492.00 C 215.59 494.32 228.58 487.63 226.00 470.00 C 223.42 452.37 227.34 438.29 226.00 422.00 C 224.66 405.71 227.05 388.11 226.00 373.00 C 224.95 357.89 227.46 338.12 226.00 325.00 C 224.54 311.88 232.18 289.76 217.00 286.00
M 120.00 345.00 
C 129.71 338.00 134.62 331.89 143.75 322.75 C 152.88 313.61 164.86 327.55 171.25 334.75 C 177.63 341.95 193.69 352.38 186.69 362.69 C 179.69 373.01 170.62 376.93 163.00 386.00
C 169.60 396.05 176.64 400.16 185.25 409.75 C 193.86 419.34 179.48 431.93 172.25 438.25 C 165.01 444.56 155.02 460.33 145.26 452.74 C 135.50 445.16 130.71 437.01 122.00 429.00
C 112.04 435.65 107.16 443.13 97.75 451.75 C 88.35 460.38 76.71 445.83 70.25 438.75 C 63.78 431.67 47.48 421.07 55.26 411.26 C 63.03 401.45 70.85 396.75 79.00 388.00
C 72.16 378.12 65.12 373.04 56.25 363.75 C 47.38 354.46 62.17 342.74 69.25 336.25 C 76.33 329.75 86.83 313.69 96.69 321.31 C 106.56 328.92 111.26 336.91 120.00 345.00 Z"/>
</g>
<g fill="None" fill-opacity="0.0" stroke="#48E197" stroke-opacity="1.00" stroke-width="0.3"><path d="
M 502.00 460.00 
C 503.94 454.67 499.42 446.00 502.00 441.00
C 489.32 441.73 489.14 422.19 502.00 421.00
C 502.00 413.33 502.00 405.67 502.00 398.00
C 484.87 396.19 493.20 369.92 492.00 355.00 C 490.80 340.08 492.09 320.74 492.00 303.00 C 491.91 285.26 473.63 284.35 457.00 286.00 C 440.37 287.65 422.23 285.19 405.00 286.00 C 387.77 286.81 370.76 285.49 353.00 286.00 C 335.24 286.51 319.57 285.44 301.00 286.00 C 282.43 286.56 285.41 307.19 286.00 323.00 C 286.59 338.81 285.34 359.31 286.00 376.00 C 286.66 392.69 284.81 410.94 286.00 428.00 C 287.19 445.06 283.49 462.74 286.01 479.99 C 288.53 497.24 311.22 491.67 326.00 492.00 C 340.78 492.33 361.82 492.24 378.00 492.00 C 394.18 491.76 413.19 492.96 430.00 492.00 C 446.81 491.04 464.67 494.42 481.77 491.77 C 498.88 489.12 484.46 461.63 502.00 460.00
M 454.00 343.00 
C 467.04 346.23 458.84 364.99 461.00 376.00 C 463.16 387.01 458.54 403.41 461.00 416.00 C 463.46 428.59 459.09 442.76 444.00 440.00 C 428.91 437.24 418.10 441.66 404.00 440.00 C 389.90 438.34 377.63 441.68 364.00 440.00 C 350.37 438.32 336.77 443.12 323.78 439.22 C 310.79 435.32 317.70 418.46 316.00 407.00 C 314.30 395.54 318.13 379.56 316.00 367.00 C 313.87 354.44 318.21 340.59 333.00 343.00 C 347.79 345.41 359.06 341.41 373.00 343.00 C 386.94 344.59 399.50 341.17 413.00 343.00 C 426.50 344.83 440.92 339.76 454.00 343.00 Z"/>
</g>
<g fill="None" fill-opacity="0.0" stroke="#000000" stroke-opacity="1.00" stroke-width="0.3"><path d="
M 120.00 345.00 
C 111.26 336.91 106.56 328.92 96.69 321.31 C 86.83 313.69 76.33 329.75 69.25 336.25 C 62.17 342.74 47.38 354.46 56.25 363.75 C 65.12 373.04 72.16 378.12 79.00 388.00
C 70.85 396.75 63.03 401.45 55.26 411.26 C 47.48 421.07 63.78 431.67 70.25 438.75 C 76.71 445.83 88.35 460.38 97.75 451.75 C 107.16 443.13 112.04 435.65 122.00 429.00
C 130.71 437.01 135.50 445.16 145.26 452.74 C 155.02 460.33 165.01 444.56 172.25 438.25 C 179.48 431.93 193.86 419.34 185.25 409.75 C 176.64 400.16 169.60 396.05 163.00 386.00
C 170.62 376.93 179.69 373.01 186.69 362.69 C 193.69 352.38 177.63 341.95 171.25 334.75 C 164.86 327.55 152.88 313.61 143.75 322.75 C 134.62 331.89 129.71 338.00 120.00 345.00
M 152.00 344.00 
C 153.86 344.15 164.00 354.23 164.00 356.00
C 164.00 361.37 152.74 365.17 150.25 370.25 C 147.75 375.32 137.93 379.03 138.02 386.03 C 138.12 393.02 144.32 398.04 149.25 402.75 C 154.17 407.46 158.75 412.82 164.00 417.00
C 160.57 422.63 152.65 434.03 146.75 426.25 C 140.85 418.47 135.20 416.58 129.25 408.75 C 123.30 400.93 113.51 405.47 108.25 412.25 C 102.99 419.03 95.84 423.10 91.00 430.00
C 85.33 427.97 82.16 421.13 77.00 418.00
C 82.12 406.92 102.04 400.74 102.99 387.99 C 103.94 375.25 83.11 366.57 77.00 357.00
C 80.36 352.19 85.69 348.77 89.00 344.00
C 100.83 347.53 106.95 369.41 120.02 369.98 C 133.10 370.54 140.39 347.49 152.00 344.00 Z"/>
</g>
<g fill="None" fill-opacity="0.0" stroke="#000000" stroke-opacity="1.00" stroke-width="0.3"><path d="
M 454.00 343.00 
C 440.92 339.76 426.50 344.83 413.00 343.00 C 399.50 341.17 386.94 344.59 373.00 343.00 C 359.06 341.41 347.79 345.41 333.00 343.00 C 318.21 340.59 313.87 354.44 316.00 367.00 C 318.13 379.56 314.30 395.54 316.00 407.00 C 317.70 418.46 310.79 435.32 323.78 439.22 C 336.77 443.12 350.37 438.32 364.00 440.00 C 377.63 441.68 389.90 438.34 404.00 440.00 C 418.10 441.66 428.91 437.24 444.00 440.00 C 459.09 442.76 463.46 428.59 461.00 416.00 C 458.54 403.41 463.16 387.01 461.00 376.00 C 458.84 364.99 467.04 346.23 454.00 343.00
M 441.00 363.00 
C 441.00 369.00 441.00 375.00 441.00 381.00
C 406.00 381.00 371.00 381.00 336.00 381.00
C 336.00 375.00 336.00 369.00 336.00 363.00
C 371.00 363.00 406.00 363.00 441.00 363.00
M 441.00 402.00 
C 443.82 406.03 438.89 415.48 441.00 420.00
C 406.00 420.00 371.00 420.00 336.00 420.00
C 336.00 414.00 336.00 408.00 336.00 402.00
C 338.82 397.97 350.67 402.05 356.00 401.00 C 361.33 399.95 370.89 401.24 377.00 401.00 C 383.11 400.76 392.89 400.69 399.00 401.00 C 405.11 401.31 414.64 399.83 420.00 401.00 C 425.36 402.17 438.11 397.88 441.00 402.00 Z"/>
</g>
<g fill="None" fill-opacity="0.0" stroke="#E6E8EC" stroke-opacity="1.00" stroke-width="0.3"><path d="
M 164.00 356.00 
C 159.68 352.48 155.44 348.30 152.00 344.00
C 140.39 347.49 133.10 370.54 120.02 369.98 C 106.95 369.41 100.83 347.53 89.00 344.00
C 85.69 348.77 80.36 352.19 77.00 357.00
C 83.11 366.57 103.94 375.25 102.99 387.99 C 102.04 400.74 82.12 406.92 77.00 418.00
C 82.16 421.13 85.33 427.97 91.00 430.00
C 95.84 423.10 102.99 419.03 108.25 412.25 C 113.51 405.47 123.30 400.93 129.25 408.75 C 135.20 416.58 140.85 418.47 146.75 426.25 C 152.65 434.03 160.57 422.63 164.00 417.00
C 158.75 412.82 154.17 407.46 149.25 402.75 C 144.32 398.04 138.12 393.02 138.02 386.03 C 137.93 379.03 147.75 375.32 150.25 370.25 C 152.74 365.17 164.00 361.37 164.00 356.00 Z"/>
</g>
<g fill="None" fill-opacity="0.0" stroke="#6D6E70" stroke-opacity="1.00" stroke-width="0.3"><path d="
M 164.00 356.00 
C 164.00 354.23 153.86 344.15 152.00 344.00
C 155.44 348.30 159.68 352.48 164.00 356.00 Z"/>
</g>
<g fill="None" fill-opacity="0.0" stroke="#E8EAEE" stroke-opacity="1.00" stroke-width="0.3"><path d="
M 441.00 363.00 
C 406.00 363.00 371.00 363.00 336.00 363.00
C 336.00 369.00 336.00 375.00 336.00 381.00
C 371.00 381.00 406.00 381.00 441.00 381.00
C 441.00 375.00 441.00 369.00 441.00 363.00 Z"/>
</g>
<g fill="None" fill-opacity="0.0" stroke="#000000" stroke-opacity="0.04" stroke-width="0.3"><path d="
M 502.00 398.00 
C 502.00 405.67 502.00 413.33 502.00 421.00
C 506.63 420.57 509.63 424.38 512.00 429.00
L 512.00 393.00
C 507.07 395.29 506.69 398.50 502.00 398.00 Z"/>
</g>
<g fill="None" fill-opacity="0.0" stroke="#7C7D7F" stroke-opacity="1.00" stroke-width="0.3"><path d="
M 336.00 402.00 
C 371.00 402.00 406.00 402.00 441.00 402.00
C 438.11 397.88 425.36 402.17 420.00 401.00 C 414.64 399.83 405.11 401.31 399.00 401.00 C 392.89 400.69 383.11 400.76 377.00 401.00 C 370.89 401.24 361.33 399.95 356.00 401.00 C 350.67 402.05 338.82 397.97 336.00 402.00 Z"/>
</g>
<g fill="None" fill-opacity="0.0" stroke="#E7E9ED" stroke-opacity="1.00" stroke-width="0.3"><path d="
M 441.00 402.00 
C 406.00 402.00 371.00 402.00 336.00 402.00
C 336.00 408.00 336.00 414.00 336.00 420.00
C 371.00 420.00 406.00 420.00 441.00 420.00
C 438.89 415.48 443.82 406.03 441.00 402.00 Z"/>
</g>
<g fill="None" fill-opacity="0.0" stroke="#000000" stroke-opacity="0.99" stroke-width="0.3"><path d="
M 502.00 421.00 
C 489.14 422.19 489.32 441.73 502.00 441.00
C 506.48 440.74 510.66 435.86 512.00 432.00
L 512.00 429.00
C 509.63 424.38 506.63 420.57 502.00 421.00 Z"/>
</g>
<g fill="None" fill-opacity="0.0" stroke="#000000" stroke-opacity="0.04" stroke-width="0.3"><path d="
M 502.00 441.00 
C 499.42 446.00 503.94 454.67 502.00 460.00
C 506.64 459.57 510.17 463.41 512.00 468.00
L 512.00 432.00
C 510.66 435.86 506.48 440.74 502.00 441.00 Z"/>
</g>
<g fill="None" fill-opacity="0.0" stroke="#000000" stroke-opacity="0.06" stroke-width="0.3"><path d="
M 0.00 512.00 
L 30.00 512.00
C 13.91 509.42 2.79 498.00 0.00 482.00
L 0.00 512.00 Z"/>
</g>
<g fill="None" fill-opacity="0.0" stroke="#000000" stroke-opacity="0.04" stroke-width="0.3"><path d="
M 486.00 512.00 
L 512.00 512.00
L 512.00 482.00
C 509.56 490.75 508.64 494.67 503.25 501.25 C 497.85 507.83 490.86 508.47 486.00 512.00 Z"/>
</g>
<g fill="#000000" fill-opacity="0.07" stroke="None">
<path d="
M 0.00 33.00 
C 1.23 14.53 13.83 1.78 32.00 0.00
L 0.00 0.00
L 0.00 33.00 Z"/>
</g>
<g fill="#000000" fill-opacity="0.99" stroke="None">
<path d="
M 0.00 33.00 
L 0.00 216.00
C 2.14 225.48 5.01 233.38 13.90 240.10 C 22.79 246.81 27.61 245.85 42.00 246.00 C 56.39 246.15 75.90 245.88 91.00 246.00 C 106.10 246.12 123.87 245.84 139.00 246.00 C 154.13 246.16 173.52 245.68 188.00 246.00 C 202.48 246.32 216.59 246.70 225.30 243.29 C 234.00 239.88 238.97 235.27 243.13 227.08 C 247.29 218.90 247.23 203.26 247.00 190.00 C 246.77 176.74 247.07 154.37 247.00 142.00 C 246.93 129.63 249.06 112.71 237.00 113.00
C 221.21 113.38 225.47 137.65 226.00 151.00 C 226.53 164.35 223.83 184.32 226.00 200.00 C 228.17 215.68 220.80 229.11 203.00 226.00 C 185.20 222.89 170.65 227.40 154.00 226.00 C 137.35 224.60 120.72 226.62 105.00 226.00 C 89.28 225.38 70.38 226.25 56.00 226.00 C 41.62 225.75 21.43 230.01 20.01 212.99 C 18.59 195.98 20.38 179.31 20.00 163.00 C 19.62 146.69 19.55 129.43 20.00 114.00 C 20.45 98.57 18.42 78.95 20.00 65.00 C 21.58 51.05 13.56 30.24 26.25 22.25 C 38.94 14.26 58.06 21.98 73.00 20.00 C 87.94 18.02 106.49 20.59 122.00 20.00 C 137.51 19.41 155.46 19.60 171.00 20.00 C 186.54 20.40 204.01 17.73 218.68 21.32 C 233.34 24.91 218.43 53.14 237.00 53.00
C 249.78 52.90 247.81 29.26 243.41 20.25 C 239.01 11.24 227.38 0.20 216.00 0.00
L 32.00 0.00
C 13.83 1.78 1.23 14.53 0.00 33.00 Z"/>
</g>
<g fill="#000000" fill-opacity="0.02" stroke="None">
<path d="
M 237.00 53.00 
C 234.82 58.06 238.63 65.70 237.00 71.00
C 247.40 70.76 248.92 90.67 237.00 92.00
C 234.45 97.90 238.91 106.82 237.00 113.00
C 249.06 112.71 246.93 129.63 247.00 142.00 C 247.07 154.37 246.77 176.74 247.00 190.00 C 247.23 203.26 247.29 218.90 243.13 227.08 C 238.97 235.27 234.00 239.88 225.30 243.29 C 216.59 246.70 202.48 246.32 188.00 246.00 C 173.52 245.68 154.13 246.16 139.00 246.00 C 123.87 245.84 106.10 246.12 91.00 246.00 C 75.90 245.88 56.39 246.15 42.00 246.00 C 27.61 245.85 22.79 246.81 13.90 240.10 C 5.01 233.38 2.14 225.48 0.00 216.00
L 0.00 298.00
C 2.18 284.71 7.12 274.03 20.25 268.81 C 33.38 263.59 53.37 266.55 72.00 266.00 C 90.63 265.45 116.60 266.46 136.00 266.00 C 155.40 265.54 180.00 266.67 199.00 266.00 C 218.00 265.33 226.48 265.79 236.75 276.25 C 247.03 286.70 246.95 295.53 247.00 315.00 C 247.05 334.48 247.11 358.33 247.00 378.00 C 246.89 397.67 247.33 423.12 247.00 442.00 C 246.67 460.88 248.86 479.05 243.81 492.25 C 238.75 505.44 227.90 508.45 216.00 512.00
L 299.00 512.00
C 285.68 510.04 274.89 505.93 268.87 493.08 C 262.85 480.23 265.29 461.80 265.00 443.00 C 264.71 424.20 264.92 398.54 265.00 379.00 C 265.08 359.46 264.50 334.09 265.00 315.00 C 265.50 295.91 264.22 287.09 274.26 276.25 C 284.30 265.41 293.32 265.71 312.00 266.00 C 330.68 266.29 356.66 265.54 376.00 266.00 C 395.34 266.46 421.32 265.05 440.00 266.00 C 458.68 266.95 479.15 262.85 492.25 268.19 C 505.35 273.54 509.71 285.73 512.00 298.00
L 512.00 216.00
C 508.68 228.26 504.91 238.05 491.75 243.19 C 478.58 248.33 458.58 245.56 440.00 246.00 C 421.42 246.44 395.26 245.74 376.00 246.00 C 356.74 246.26 331.66 245.75 313.00 246.00 C 294.34 246.25 284.85 246.87 274.90 236.10 C 264.95 225.33 265.40 217.87 265.00 199.00 C 264.60 180.13 265.17 155.39 265.00 136.00 C 264.83 116.61 265.06 90.73 265.00 72.00 C 264.94 53.27 263.53 33.95 268.76 20.75 C 273.98 7.55 284.15 2.03 298.00 0.00
L 216.00 0.00
C 227.38 0.20 239.01 11.24 243.41 20.25 C 247.81 29.26 249.78 52.90 237.00 53.00 Z"/>
</g>
<g fill="#000000" fill-opacity="0.99" stroke="None">
<path d="
M 512.00 216.00 
L 512.00 33.00
C 511.02 15.08 498.72 3.06 482.00 0.00
L 298.00 0.00
C 284.15 2.03 273.98 7.55 268.76 20.75 C 263.53 33.95 264.94 53.27 265.00 72.00 C 265.06 90.73 264.83 116.61 265.00 136.00 C 265.17 155.39 264.60 180.13 265.00 199.00 C 265.40 217.87 264.95 225.33 274.90 236.10 C 284.85 246.87 294.34 246.25 313.00 246.00 C 331.66 245.75 356.74 246.26 376.00 246.00 C 395.26 245.74 421.42 246.44 440.00 246.00 C 458.58 245.56 478.58 248.33 491.75 243.19 C 504.91 238.05 508.68 228.26 512.00 216.00
M 482.00 20.00 
C 497.56 23.86 490.84 44.68 492.00 58.00 C 493.16 71.32 491.09 90.84 492.00 106.00 C 492.91 121.16 490.74 138.77 492.00 155.00 C 493.26 171.23 489.51 185.60 492.00 203.00 C 494.49 220.40 482.82 228.47 466.00 226.00 C 449.18 223.53 434.16 227.03 418.00 226.00 C 401.84 224.97 384.53 226.33 369.00 226.00 C 353.47 225.67 335.41 225.83 321.00 226.00 C 306.59 226.17 286.52 229.29 286.00 212.00 C 285.48 194.70 285.92 180.31 286.00 164.00 C 286.08 147.69 285.30 130.48 286.00 115.00 C 286.70 99.52 284.16 81.13 286.00 67.00 C 287.84 52.87 279.62 31.84 291.08 23.08 C 302.54 14.33 321.45 21.58 336.00 20.00 C 350.55 18.42 369.75 20.10 385.00 20.00 C 400.25 19.90 417.64 18.61 433.00 20.00 C 448.36 21.39 467.05 16.30 482.00 20.00 Z"/>
</g>
<g fill="#000000" fill-opacity="0.07" stroke="None">
<path d="
M 512.00 33.00 
L 512.00 0.00
L 482.00 0.00
C 498.72 3.06 511.02 15.08 512.00 33.00 Z"/>
</g>
<g fill="#FDD26B" fill-opacity="1.00" stroke="None">
<path d="
M 237.00 113.00 
C 238.91 106.82 234.45 97.90 237.00 92.00
C 224.19 93.43 222.72 71.33 237.00 71.00
C 238.63 65.70 234.82 58.06 237.00 53.00
C 218.43 53.14 233.34 24.91 218.68 21.32 C 204.01 17.73 186.54 20.40 171.00 20.00 C 155.46 19.60 137.51 19.41 122.00 20.00 C 106.49 20.59 87.94 18.02 73.00 20.00 C 58.06 21.98 38.94 14.26 26.25 22.25 C 13.56 30.24 21.58 51.05 20.00 65.00 C 18.42 78.95 20.45 98.57 20.00 114.00 C 19.55 129.43 19.62 146.69 20.00 163.00 C 20.38 179.31 18.59 195.98 20.01 212.99 C 21.43 230.01 41.62 225.75 56.00 226.00 C 70.38 226.25 89.28 225.38 105.00 226.00 C 120.72 226.62 137.35 224.60 154.00 226.00 C 170.65 227.40 185.20 222.89 203.00 226.00 C 220.80 229.11 228.17 215.68 226.00 200.00 C 223.83 184.32 226.53 164.35 226.00 151.00 C 225.47 137.65 221.21 113.38 237.00 113.00
M 152.00 94.00 
C 159.69 93.21 170.63 95.05 178.00 94.00 C 185.37 92.95 195.27 94.97 195.93 103.07 C 196.58 111.18 196.40 121.82 196.00 129.00 C 195.60 136.18 199.01 148.07 190.92 150.92 C 182.83 153.76 176.21 153.08 166.00 152.00 C 155.79 150.92 150.60 154.34 152.00 165.00 C 153.40 175.66 153.32 181.55 151.22 190.22 C 149.12 198.89 137.12 195.55 130.00 196.00 C 122.88 196.45 112.12 196.29 104.00 196.00 C 95.88 195.71 92.80 186.78 94.00 179.00 C 95.20 171.22 93.10 160.09 94.00 152.00
C 82.72 150.17 69.04 154.44 58.00 152.00 C 46.96 149.56 51.07 131.11 51.00 123.00 C 50.93 114.89 47.07 96.36 58.22 94.22 C 69.38 92.09 82.64 95.36 94.00 94.00
C 95.20 82.53 92.25 69.54 94.33 58.33 C 96.41 47.12 114.77 50.91 123.00 51.00 C 131.23 51.09 149.54 46.97 151.92 58.08 C 154.31 69.19 150.30 82.67 152.00 94.00 Z"/>
</g>
<g fill="#F1695A" fill-opacity="1.00" stroke="None">
<path d="
M 482.00 20.00 
C 467.05 16.30 448.36 21.39 433.00 20.00 C 417.64 18.61 400.25 19.90 385.00 20.00 C 369.75 20.10 350.55 18.42 336.00 20.00 C 321.45 21.58 302.54 14.33 291.08 23.08 C 279.62 31.84 287.84 52.87 286.00 67.00 C 284.16 81.13 286.70 99.52 286.00 115.00 C 285.30 130.48 286.08 147.69 286.00 164.00 C 285.92 180.31 285.48 194.70 286.00 212.00 C 286.52 229.29 306.59 226.17 321.00 226.00 C 335.41 225.83 353.47 225.67 369.00 226.00 C 384.53 226.33 401.84 224.97 418.00 226.00 C 434.16 227.03 449.18 223.53 466.00 226.00 C 482.82 228.47 494.49 220.40 492.00 203.00 C 489.51 185.60 493.26 171.23 492.00 155.00 C 490.74 138.77 492.91 121.16 492.00 106.00 C 491.09 90.84 493.16 71.32 492.00 58.00 C 490.84 44.68 497.56 23.86 482.00 20.00
M 453.00 99.00 
C 466.13 102.99 459.44 118.90 461.00 130.00 C 462.56 141.10 462.54 158.12 448.00 157.00 C 433.46 155.88 421.96 157.41 408.00 157.00 C 394.04 156.59 382.89 156.92 369.00 157.00 C 355.11 157.08 343.28 156.42 329.00 157.00 C 314.72 157.58 314.70 141.12 316.00 130.00 C 317.30 118.88 311.30 102.39 325.00 99.00
C 337.75 95.84 353.26 98.34 367.00 98.00 C 380.74 97.66 396.25 97.21 410.00 98.00 C 423.75 98.79 440.39 95.17 453.00 99.00 Z"/>
</g>
<g fill="#000000" fill-opacity="1.00" stroke="None">
<path d="
M 152.00 94.00 
C 150.30 82.67 154.31 69.19 151.92 58.08 C 149.54 46.97 131.23 51.09 123.00 51.00 C 114.77 50.91 96.41 47.12 94.33 58.33 C 92.25 69.54 95.20 82.53 94.00 94.00
C 82.64 95.36 69.38 92.09 58.22 94.22 C 47.07 96.36 50.93 114.89 51.00 123.00 C 51.07 131.11 46.96 149.56 58.00 152.00 C 69.04 154.44 82.72 150.17 94.00 152.00
C 93.10 160.09 95.20 171.22 94.00 179.00 C 92.80 186.78 95.88 195.71 104.00 196.00 C 112.12 196.29 122.88 196.45 130.00 196.00 C 137.12 195.55 149.12 198.89 151.22 190.22 C 153.32 181.55 153.40 175.66 152.00 165.00 C 150.60 154.34 155.79 150.92 166.00 152.00 C 176.21 153.08 182.83 153.76 190.92 150.92 C 199.01 148.07 195.60 136.18 196.00 129.00 C 196.40 121.82 196.58 111.18 195.93 103.07 C 195.27 94.97 185.37 92.95 178.00 94.00 C 170.63 95.05 159.69 93.21 152.00 94.00
M 175.00 114.00 
C 177.55 115.79 176.29 128.74 176.00 132.00
C 172.52 135.62 164.16 131.86 159.00 133.00 C 153.84 134.14 145.43 132.03 140.00 133.00
C 135.19 134.52 134.18 136.25 133.00 141.00
C 132.35 146.24 134.00 154.03 133.00 159.00 C 132.00 163.97 135.48 172.66 132.00 176.00
C 128.69 176.30 115.78 177.55 114.00 175.00
C 111.46 171.37 115.12 163.64 114.00 159.00 C 112.88 154.36 114.60 146.97 114.00 142.00 C 113.40 137.03 110.56 134.44 106.00 133.00
C 101.39 132.17 92.22 133.70 88.00 133.00 C 83.78 132.30 72.38 134.58 70.26 131.74 C 68.14 128.91 69.35 115.16 71.00 114.00
C 75.64 110.75 86.26 115.64 92.00 114.00 C 97.74 112.36 106.22 116.39 110.75 110.75 C 115.28 105.11 113.97 100.14 114.00 93.00 C 114.03 85.86 113.98 78.19 114.00 71.00
C 120.00 71.00 126.00 71.00 132.00 71.00
C 135.20 82.36 126.36 101.51 135.25 110.75 C 144.15 119.98 163.72 110.57 175.00 114.00 Z"/>
</g>
<g fill="#E9EBEF" fill-opacity="1.00" stroke="None">
<path d="
M 71.00 114.00 
C 71.00 120.00 71.00 126.00 71.00 132.00
C 82.50 132.67 95.32 130.67 106.00 133.00
C 110.56 134.44 113.40 137.03 114.00 142.00 C 114.60 146.97 112.88 154.36 114.00 159.00 C 115.12 163.64 111.46 171.37 114.00 175.00
C 119.96 175.40 126.05 174.46 132.00 175.00
C 132.00 164.11 130.53 150.98 133.00 141.00
C 134.18 136.25 135.19 134.52 140.00 133.00
C 149.83 129.89 164.18 132.00 175.00 132.00
C 174.46 126.05 175.40 119.96 175.00 114.00
C 163.72 110.57 144.15 119.98 135.25 110.75 C 126.36 101.51 135.20 82.36 132.00 71.00
C 126.00 71.00 120.00 71.00 114.00 71.00
C 113.98 78.19 114.03 85.86 114.00 93.00 C 113.97 100.14 115.28 105.11 110.75 110.75 C 106.22 116.39 97.74 112.36 92.00 114.00 C 86.26 115.64 75.64 110.75 71.00 114.00 Z"/>
</g>
<g fill="#000000" fill-opacity="0.99" stroke="None">
<path d="
M 237.00 92.00 
C 248.92 90.67 247.40 70.76 237.00 71.00
C 222.72 71.33 224.19 93.43 237.00 92.00 Z"/>
</g>
<g fill="#813931" fill-opacity="1.00" stroke="None">
<path d="
M 325.00 99.00 
C 345.42 96.47 368.42 98.67 389.00 99.00 C 409.58 99.33 432.77 95.58 453.00 99.00
C 440.39 95.17 423.75 98.79 410.00 98.00 C 396.25 97.21 380.74 97.66 367.00 98.00 C 353.26 98.34 337.75 95.84 325.00 99.00 Z"/>
</g>
<g fill="#000000" fill-opacity="1.00" stroke="None">
<path d="
M 453.00 99.00 
C 432.77 95.58 409.58 99.33 389.00 99.00 C 368.42 98.67 345.42 96.47 325.00 99.00
C 311.30 102.39 317.30 118.88 316.00 130.00 C 314.70 141.12 314.72 157.58 329.00 157.00 C 343.28 156.42 355.11 157.08 369.00 157.00 C 382.89 156.92 394.04 156.59 408.00 157.00 C 421.96 157.41 433.46 155.88 448.00 157.00 C 462.54 158.12 462.56 141.10 461.00 130.00 C 459.44 118.90 466.13 102.99 453.00 99.00
M 441.00 119.00 
C 443.82 123.03 438.89 132.48 441.00 137.00
C 406.00 137.00 371.00 137.00 336.00 137.00
C 336.66 131.17 334.68 124.01 337.00 119.00
C 340.87 115.13 351.25 118.99 357.00 118.00 C 362.75 117.01 371.82 118.24 378.00 118.00 C 384.18 117.76 392.93 117.64 399.00 118.00 C 405.07 118.36 414.65 116.81 420.00 118.00 C 425.35 119.19 438.11 114.87 441.00 119.00 Z"/>
</g>
<g fill="#5A5A5C" fill-opacity="1.00" stroke="None">
<path d="
M 106.00 133.00 
C 95.32 130.67 82.50 132.67 71.00 132.00
C 71.00 126.00 71.00 120.00 71.00 114.00
C 69.35 115.16 68.14 128.91 70.26 131.74 C 72.38 134.58 83.78 132.30 88.00 133.00 C 92.22 133.70 101.39 132.17 106.00 133.00 Z"/>
</g>
<g fill="#9FA0A3" fill-opacity="1.00" stroke="None">
<path d="
M 175.00 132.00 
C 175.50 132.00 176.00 132.00 176.00 132.00
C 176.29 128.74 177.55 115.79 175.00 114.00
C 175.40 119.96 174.46 126.05 175.00 132.00 Z"/>
</g>
<g fill="#6D6E70" fill-opacity="1.00" stroke="None">
<path d="
M 337.00 119.00 
C 341.58 115.79 351.08 120.37 357.00 119.00 C 362.92 117.63 371.49 119.62 378.00 119.00 C 384.51 118.38 392.23 119.29 399.00 119.00 C 405.77 118.71 413.12 119.15 420.00 119.00 C 426.88 118.85 434.09 119.11 441.00 119.00
C 438.11 114.87 425.35 119.19 420.00 118.00 C 414.65 116.81 405.07 118.36 399.00 118.00 C 392.93 117.64 384.18 117.76 378.00 118.00 C 371.82 118.24 362.75 117.01 357.00 118.00 C 351.25 118.99 340.87 115.13 337.00 119.00 Z"/>
</g>
<g fill="#E8EAEE" fill-opacity="1.00" stroke="None">
<path d="
M 441.00 119.00 
C 434.09 119.11 426.88 118.85 420.00 119.00 C 413.12 119.15 405.77 118.71 399.00 119.00 C 392.23 119.29 384.51 118.38 378.00 119.00 C 371.49 119.62 362.92 117.63 357.00 119.00 C 351.08 120.37 341.58 115.79 337.00 119.00
C 334.68 124.01 336.66 131.17 336.00 137.00
C 371.00 137.00 406.00 137.00 441.00 137.00
C 438.89 132.48 443.82 123.03 441.00 119.00 Z"/>
</g>
<g fill="#5E5E60" fill-opacity="1.00" stroke="None">
<path d="
M 140.00 133.00 
C 145.43 132.03 153.84 134.14 159.00 133.00 C 164.16 131.86 172.52 135.62 176.00 132.00
C 176.00 132.00 175.50 132.00 175.00 132.00
C 164.18 132.00 149.83 129.89 140.00 133.00 Z"/>
</g>
<g fill="#565758" fill-opacity="1.00" stroke="None">
<path d="
M 132.00 175.00 
C 132.00 175.50 132.00 176.00 132.00 176.00
C 135.48 172.66 132.00 163.97 133.00 159.00 C 134.00 154.03 132.35 146.24 133.00 141.00
C 130.53 150.98 132.00 164.11 132.00 175.00 Z"/>
</g>
<g fill="#9C9DA0" fill-opacity="1.00" stroke="None">
<path d="
M 132.00 176.00 
C 132.00 176.00 132.00 175.50 132.00 175.00
C 126.05 174.46 119.96 175.40 114.00 175.00
C 115.78 177.55 128.69 176.30 132.00 176.00 Z"/>
</g>
<g fill="#000000" fill-opacity="0.99" stroke="None">
<path d="
M 0.00 298.00 
L 0.00 482.00
C 2.79 498.00 13.91 509.42 30.00 512.00
L 216.00 512.00
C 227.90 508.45 238.75 505.44 243.81 492.25 C 248.86 479.05 246.67 460.88 247.00 442.00 C 247.33 423.12 246.89 397.67 247.00 378.00 C 247.11 358.33 247.05 334.48 247.00 315.00 C 246.95 295.53 247.03 286.70 236.75 276.25 C 226.48 265.79 218.00 265.33 199.00 266.00 C 180.00 266.67 155.40 265.54 136.00 266.00 C 116.60 266.46 90.63 265.45 72.00 266.00 C 53.37 266.55 33.38 263.59 20.25 268.81 C 7.12 274.03 2.18 284.71 0.00 298.00
M 217.00 286.00 
C 232.18 289.76 224.54 311.88 226.00 325.00 C 227.46 338.12 224.95 357.89 226.00 373.00 C 227.05 388.11 224.66 405.71 226.00 422.00 C 227.34 438.29 223.42 452.37 226.00 470.00 C 228.58 487.63 215.59 494.32 199.00 492.00 C 182.41 489.68 167.07 492.91 151.00 492.00 C 134.93 491.09 117.52 492.17 102.00 492.00 C 86.48 491.83 68.48 491.50 54.00 492.00 C 39.52 492.50 20.49 494.20 20.00 477.00 C 19.51 459.80 19.93 445.26 20.00 429.00 C 20.07 412.74 19.35 395.43 20.00 380.00 C 20.65 364.57 18.30 346.05 20.00 332.00 C 21.70 317.95 13.74 296.89 25.70 288.70 C 37.65 280.50 56.27 287.57 71.00 286.00 C 85.73 284.43 104.66 286.10 120.00 286.00 C 135.34 285.90 152.59 284.60 168.00 286.00 C 183.41 287.40 202.02 282.29 217.00 286.00 Z"/>
</g>
<g fill="#000000" fill-opacity="0.99" stroke="None">
<path d="
M 299.00 512.00 
L 486.00 512.00
C 490.86 508.47 497.85 507.83 503.25 501.25 C 508.64 494.67 509.56 490.75 512.00 482.00
L 512.00 468.00
C 510.17 463.41 506.64 459.57 502.00 460.00
C 484.46 461.63 498.88 489.12 481.77 491.77 C 464.67 494.42 446.81 491.04 430.00 492.00 C 413.19 492.96 394.18 491.76 378.00 492.00 C 361.82 492.24 340.78 492.33 326.00 492.00 C 311.22 491.67 288.53 497.24 286.01 479.99 C 283.49 462.74 287.19 445.06 286.00 428.00 C 284.81 410.94 286.66 392.69 286.00 376.00 C 285.34 359.31 286.59 338.81 286.00 323.00 C 285.41 307.19 282.43 286.56 301.00 286.00 C 319.57 285.44 335.24 286.51 353.00 286.00 C 370.76 285.49 387.77 286.81 405.00 286.00 C 422.23 285.19 440.37 287.65 457.00 286.00 C 473.63 284.35 491.91 285.26 492.00 303.00 C 492.09 320.74 490.80 340.08 492.00 355.00 C 493.20 369.92 484.87 396.19 502.00 398.00
C 506.69 398.50 507.07 395.29 512.00 393.00
L 512.00 298.00
C 509.71 285.73 505.35 273.54 492.25 268.19 C 479.15 262.85 458.68 266.95 440.00 266.00 C 421.32 265.05 395.34 266.46 376.00 266.00 C 356.66 265.54 330.68 266.29 312.00 266.00 C 293.32 265.71 284.30 265.41 274.26 276.25 C 264.22 287.09 265.50 295.91 265.00 315.00 C 264.50 334.09 265.08 359.46 265.00 379.00 C 264.92 398.54 264.71 424.20 265.00 443.00 C 265.29 461.80 262.85 480.23 268.87 493.08 C 274.89 505.93 285.68 510.04 299.00 512.00 Z"/>
</g>
<g fill="#00819F" fill-opacity="1.00" stroke="None">
<path d="
M 217.00 286.00 
C 202.02 282.29 183.41 287.40 168.00 286.00 C 152.59 284.60 135.34 285.90 120.00 286.00 C 104.66 286.10 85.73 284.43 71.00 286.00 C 56.27 287.57 37.65 280.50 25.70 288.70 C 13.74 296.89 21.70 317.95 20.00 332.00 C 18.30 346.05 20.65 364.57 20.00 380.00 C 19.35 395.43 20.07 412.74 20.00 429.00 C 19.93 445.26 19.51 459.80 20.00 477.00 C 20.49 494.20 39.52 492.50 54.00 492.00 C 68.48 491.50 86.48 491.83 102.00 492.00 C 117.52 492.17 134.93 491.09 151.00 492.00 C 167.07 492.91 182.41 489.68 199.00 492.00 C 215.59 494.32 228.58 487.63 226.00 470.00 C 223.42 452.37 227.34 438.29 226.00 422.00 C 224.66 405.71 227.05 388.11 226.00 373.00 C 224.95 357.89 227.46 338.12 226.00 325.00 C 224.54 311.88 232.18 289.76 217.00 286.00
M 120.00 345.00 
C 129.71 338.00 134.62 331.89 143.75 322.75 C 152.88 313.61 164.86 327.55 171.25 334.75 C 177.63 341.95 193.69 352.38 186.69 362.69 C 179.69 373.01 170.62 376.93 163.00 386.00
C 169.60 396.05 176.64 400.16 185.25 409.75 C 193.86 419.34 179.48 431.93 172.25 438.25 C 165.01 444.56 155.02 460.33 145.26 452.74 C 135.50 445.16 130.71 437.01 122.00 429.00
C 112.04 435.65 107.16 443.13 97.75 451.75 C 88.35 460.38 76.71 445.83 70.25 438.75 C 63.78 431.67 47.48 421.07 55.26 411.26 C 63.03 401.45 70.85 396.75 79.00 388.00
C 72.16 378.12 65.12 373.04 56.25 363.75 C 47.38 354.46 62.17 342.74 69.25 336.25 C 76.33 329.75 86.83 313.69 96.69 321.31 C 106.56 328.92 111.26 336.91 120.00 345.00 Z"/>
</g>
<g fill="#48E197" fill-opacity="1.00" stroke="None">
<path d="
M 502.00 460.00 
C 503.94 454.67 499.42 446.00 502.00 441.00
C 489.32 441.73 489.14 422.19 502.00 421.00
C 502.00 413.33 502.00 405.67 502.00 398.00
C 484.87 396.19 493.20 369.92 492.00 355.00 C 490.80 340.08 492.09 320.74 492.00 303.00 C 491.91 285.26 473.63 284.35 457.00 286.00 C 440.37 287.65 422.23 285.19 405.00 286.00 C 387.77 286.81 370.76 285.49 353.00 286.00 C 335.24 286.51 319.57 285.44 301.00 286.00 C 282.43 286.56 285.41 307.19 286.00 323.00 C 286.59 338.81 285.34 359.31 286.00 376.00 C 286.66 392.69 284.81 410.94 286.00 428.00 C 287.19 445.06 283.49 462.74 286.01 479.99 C 288.53 497.24 311.22 491.67 326.00 492.00 C 340.78 492.33 361.82 492.24 378.00 492.00 C 394.18 491.76 413.19 492.96 430.00 492.00 C 446.81 491.04 464.67 494.42 481.77 491.77 C 498.88 489.12 484.46 461.63 502.00 460.00
M 454.00 343.00 
C 467.04 346.23 458.84 364.99 461.00 376.00 C 463.16 387.01 458.54 403.41 461.00 416.00 C 463.46 428.59 459.09 442.76 444.00 440.00 C 428.91 437.24 418.10 441.66 404.00 440.00 C 389.90 438.34 377.63 441.68 364.00 440.00 C 350.37 438.32 336.77 443.12 323.78 439.22 C 310.79 435.32 317.70 418.46 316.00 407.00 C 314.30 395.54 318.13 379.56 316.00 367.00 C 313.87 354.44 318.21 340.59 333.00 343.00 C 347.79 345.41 359.06 341.41 373.00 343.00 C 386.94 344.59 399.50 341.17 413.00 343.00 C 426.50 344.83 440.92 339.76 454.00 343.00 Z"/>
</g>
<g fill="#000000" fill-opacity="1.00" stroke="None">
<path d="
M 120.00 345.00 
C 111.26 336.91 106.56 328.92 96.69 321.31 C 86.83 313.69 76.33 329.75 69.25 336.25 C 62.17 342.74 47.38 354.46 56.25 363.75 C 65.12 373.04 72.16 378.12 79.00 388.00
C 70.85 396.75 63.03 401.45 55.26 411.26 C 47.48 421.07 63.78 431.67 70.25 438.75 C 76.71 445.83 88.35 460.38 97.75 451.75 C 107.16 443.13 112.04 435.65 122.00 429.00
C 130.71 437.01 135.50 445.16 145.26 452.74 C 155.02 460.33 165.01 444.56 172.25 438.25 C 179.48 431.93 193.86 419.34 185.25 409.75 C 176.64 400.16 169.60 396.05 163.00 386.00
C 170.62 376.93 179.69 373.01 186.69 362.69 C 193.69 352.38 177.63 341.95 171.25 334.75 C 164.86 327.55 152.88 313.61 143.75 322.75 C 134.62 331.89 129.71 338.00 120.00 345.00
M 152.00 344.00 
C 153.86 344.15 164.00 354.23 164.00 356.00
C 164.00 361.37 152.74 365.17 150.25 370.25 C 147.75 375.32 137.93 379.03 138.02 386.03 C 138.12 393.02 144.32 398.04 149.25 402.75 C 154.17 407.46 158.75 412.82 164.00 417.00
C 160.57 422.63 152.65 434.03 146.75 426.25 C 140.85 418.47 135.20 416.58 129.25 408.75 C 123.30 400.93 113.51 405.47 108.25 412.25 C 102.99 419.03 95.84 423.10 91.00 430.00
C 85.33 427.97 82.16 421.13 77.00 418.00
C 82.12 406.92 102.04 400.74 102.99 387.99 C 103.94 375.25 83.11 366.57 77.00 357.00
C 80.36 352.19 85.69 348.77 89.00 344.00
C 100.83 347.53 106.95 369.41 120.02 369.98 C 133.10 370.54 140.39 347.49 152.00 344.00 Z"/>
</g>
<g fill="#000000" fill-opacity="1.00" stroke="None">
<path d="
M 454.00 343.00 
C 440.92 339.76 426.50 344.83 413.00 343.00 C 399.50 341.17 386.94 344.59 373.00 343.00 C 359.06 341.41 347.79 345.41 333.00 343.00 C 318.21 340.59 313.87 354.44 316.00 367.00 C 318.13 379.56 314.30 395.54 316.00 407.00 C 317.70 418.46 310.79 435.32 323.78 439.22 C 336.77 443.12 350.37 438.32 364.00 440.00 C 377.63 441.68 389.90 438.34 404.00 440.00 C 418.10 441.66 428.91 437.24 444.00 440.00 C 459.09 442.76 463.46 428.59 461.00 416.00 C 458.54 403.41 463.16 387.01 461.00 376.00 C 458.84 364.99 467.04 346.23 454.00 343.00
M 441.00 363.00 
C 441.00 369.00 441.00 375.00 441.00 381.00
C 406.00 381.00 371.00 381.00 336.00 381.00
C 336.00 375.00 336.00 369.00 336.00 363.00
C 371.00 363.00 406.00 363.00 441.00 363.00
M 441.00 402.00 
C 443.82 406.03 438.89 415.48 441.00 420.00
C 406.00 420.00 371.00 420.00 336.00 420.00
C 336.00 414.00 336.00 408.00 336.00 402.00
C 338.82 397.97 350.67 402.05 356.00 401.00 C 361.33 399.95 370.89 401.24 377.00 401.00 C 383.11 400.76 392.89 400.69 399.00 401.00 C 405.11 401.31 414.64 399.83 420.00 401.00 C 425.36 402.17 438.11 397.88 441.00 402.00 Z"/>
</g>
<g fill="#E6E8EC" fill-opacity="1.00" stroke="None">
<path d="
M 164.00 356.00 
C 159.68 352.48 155.44 348.30 152.00 344.00
C 140.39 347.49 133.10 370.54 120.02 369.98 C 106.95 369.41 100.83 347.53 89.00 344.00
C 85.69 348.77 80.36 352.19 77.00 357.00
C 83.11 366.57 103.94 375.25 102.99 387.99 C 102.04 400.74 82.12 406.92 77.00 418.00
C 82.16 421.13 85.33 427.97 91.00 430.00
C 95.84 423.10 102.99 419.03 108.25 412.25 C 113.51 405.47 123.30 400.93 129.25 408.75 C 135.20 416.58 140.85 418.47 146.75 426.25 C 152.65 434.03 160.57 422.63 164.00 417.00
C 158.75 412.82 154.17 407.46 149.25 402.75 C 144.32 398.04 138.12 393.02 138.02 386.03 C 137.93 379.03 147.75 375.32 150.25 370.25 C 152.74 365.17 164.00 361.37 164.00 356.00 Z"/>
</g>
<g fill="#6D6E70" fill-opacity="1.00" stroke="None">
<path d="
M 164.00 356.00 
C 164.00 354.23 153.86 344.15 152.00 344.00
C 155.44 348.30 159.68 352.48 164.00 356.00 Z"/>
</g>
<g fill="#E8EAEE" fill-opacity="1.00" stroke="None">
<path d="
M 441.00 363.00 
C 406.00 363.00 371.00 363.00 336.00 363.00
C 336.00 369.00 336.00 375.00 336.00 381.00
C 371.00 381.00 406.00 381.00 441.00 381.00
C 441.00 375.00 441.00 369.00 441.00 363.00 Z"/>
</g>
<g fill="#000000" fill-opacity="0.04" stroke="None">
<path d="
M 502.00 398.00 
C 502.00 405.67 502.00 413.33 502.00 421.00
C 506.63 420.57 509.63 424.38 512.00 429.00
L 512.00 393.00
C 507.07 395.29 506.69 398.50 502.00 398.00 Z"/>
</g>
<g fill="#7C7D7F" fill-opacity="1.00" stroke="None">
<path d="
M 336.00 402.00 
C 371.00 402.00 406.00 402.00 441.00 402.00
C 438.11 397.88 425.36 402.17 420.00 401.00 C 414.64 399.83 405.11 401.31 399.00 401.00 C 392.89 400.69 383.11 400.76 377.00 401.00 C 370.89 401.24 361.33 399.95 356.00 401.00 C 350.67 402.05 338.82 397.97 336.00 402.00 Z"/>
</g>
<g fill="#E7E9ED" fill-opacity="1.00" stroke="None">
<path d="
M 441.00 402.00 
C 406.00 402.00 371.00 402.00 336.00 402.00
C 336.00 408.00 336.00 414.00 336.00 420.00
C 371.00 420.00 406.00 420.00 441.00 420.00
C 438.89 415.48 443.82 406.03 441.00 402.00 Z"/>
</g>
<g fill="#000000" fill-opacity="0.99" stroke="None">
<path d="
M 502.00 421.00 
C 489.14 422.19 489.32 441.73 502.00 441.00
C 506.48 440.74 510.66 435.86 512.00 432.00
L 512.00 429.00
C 509.63 424.38 506.63 420.57 502.00 421.00 Z"/>
</g>
<g fill="#000000" fill-opacity="0.04" stroke="None">
<path d="
M 502.00 441.00 
C 499.42 446.00 503.94 454.67 502.00 460.00
C 506.64 459.57 510.17 463.41 512.00 468.00
L 512.00 432.00
C 510.66 435.86 506.48 440.74 502.00 441.00 Z"/>
</g>
<g fill="#000000" fill-opacity="0.06" stroke="None">
<path d="
M 0.00 512.00 
L 30.00 512.00
C 13.91 509.42 2.79 498.00 0.00 482.00
L 0.00 512.00 Z"/>
</g>
<g fill="#000000" fill-opacity="0.04" stroke="None">
<path d="
M 486.00 512.00 
L 512.00 512.00
L 512.00 482.00
C 509.56 490.75 508.64 494.67 503.25 501.25 C 497.85 507.83 490.86 508.47 486.00 512.00 Z"/>
</g>
</svg>