<svg xmlns="http://www.w3.org/2000/svg" xmlns:v="https://svgstorm.com"
viewBox = "0 0 512 512"
width="512"
height="512">
<g fill="None" fill-opacity="0.0" stroke="#5A797E" stroke-opacity="0.00" stroke-width="0.3"><path d="
M 0.00 512.00 
L 262.00 512.00
C 252.71 511.43 239.71 507.86 238.22 495.78 C 236.74 483.69 238.87 468.40 238.00 456.00
C 215.79 456.27 193.03 450.05 172.98 443.02 C 152.92 436.00 141.45 424.63 123.75 413.25 C 106.05 401.87 105.23 372.86 126.69 364.69 C 148.16 356.53 160.49 377.96 178.70 386.31 C 196.90 394.65 217.20 404.61 238.00 406.00
C 238.00 362.67 238.00 319.33 238.00 276.00
C 181.33 265.56 115.34 233.35 116.00 167.00 C 116.66 100.65 176.27 58.95 238.00 57.00
C 240.27 37.55 229.78 8.44 253.00 0.00
L 0.00 0.00
L 0.00 512.00 Z"/>
</g>
<g fill="None" fill-opacity="0.0" stroke="#5A797E" stroke-opacity="1.00" stroke-width="0.3"><path d="
M 262.00 512.00 
L 263.00 512.00
C 286.18 504.20 275.76 474.99 278.00 456.00
C 344.36 455.95 401.89 408.63 402.00 340.00 C 402.11 271.37 337.86 235.54 278.00 224.00
C 278.00 186.00 278.00 148.00 278.00 110.00
C 294.39 113.28 312.83 117.72 327.08 126.92 C 341.32 136.13 357.01 149.45 373.70 138.70 C 390.38 127.94 389.25 105.84 374.75 95.25 C 360.25 84.66 349.36 77.01 332.77 70.23 C 316.18 63.45 296.24 59.53 278.00 58.00
C 275.69 38.30 286.83 5.62 261.00 0.00
L 253.00 0.00
C 229.78 8.44 240.27 37.55 238.00 57.00
C 176.27 58.95 116.66 100.65 116.00 167.00 C 115.34 233.35 181.33 265.56 238.00 276.00
C 238.00 319.33 238.00 362.67 238.00 406.00
C 217.20 404.61 196.90 394.65 178.70 386.31 C 160.49 377.96 148.16 356.53 126.69 364.69 C 105.23 372.86 106.05 401.87 123.75 413.25 C 141.45 424.63 152.92 436.00 172.98 443.02 C 193.03 450.05 215.79 456.27 238.00 456.00
C 238.87 468.40 236.74 483.69 238.22 495.78 C 239.71 507.86 252.71 511.43 262.00 512.00
M 237.00 109.00 
C 237.00 143.67 237.00 178.33 237.00 213.00
C 210.82 206.43 175.10 193.70 176.00 161.00 C 176.90 128.30 207.10 109.81 237.00 109.00
M 279.00 406.00 
C 279.00 367.00 279.00 328.00 279.00 289.00
C 307.79 295.87 343.59 312.37 343.00 347.00 C 342.41 381.63 310.68 403.46 279.00 406.00 Z"/>
</g>
<g fill="None" fill-opacity="0.0" stroke="#5A797E" stroke-opacity="0.00" stroke-width="0.3"><path d="
M 263.00 512.00 
L 512.00 512.00
L 512.00 0.00
L 261.00 0.00
C 286.83 5.62 275.69 38.30 278.00 58.00
C 296.24 59.53 316.18 63.45 332.77 70.23 C 349.36 77.01 360.25 84.66 374.75 95.25 C 389.25 105.84 390.38 127.94 373.70 138.70 C 357.01 149.45 341.32 136.13 327.08 126.92 C 312.83 117.72 294.39 113.28 278.00 110.00
C 278.00 148.00 278.00 186.00 278.00 224.00
C 337.86 235.54 402.11 271.37 402.00 340.00 C 401.89 408.63 344.36 455.95 278.00 456.00
C 275.76 474.99 286.18 504.20 263.00 512.00 Z"/>
</g>
<g fill="None" fill-opacity="0.0" stroke="#5A797E" stroke-opacity="0.00" stroke-width="0.3"><path d="
M 237.00 109.00 
C 207.10 109.81 176.90 128.30 176.00 161.00 C 175.10 193.70 210.82 206.43 237.00 213.00
C 237.00 178.33 237.00 143.67 237.00 109.00 Z"/>
</g>
<g fill="None" fill-opacity="0.0" stroke="#5A797E" stroke-opacity="0.00" stroke-width="0.3"><path d="
M 279.00 406.00 
C 310.68 403.46 342.41 381.63 343.00 347.00 C 343.59 312.37 307.79 295.87 279.00 289.00
C 279.00 328.00 279.00 367.00 279.00 406.00 Z"/>
</g>
<g fill="#5A797E" fill-opacity="0.00" stroke="None">
<path d="
M 0.00 512.00 
L 262.00 512.00
C 252.71 511.43 239.71 507.86 238.22 495.78 C 236.74 483.69 238.87 468.40 238.00 456.00
C 215.79 456.27 193.03 450.05 172.98 443.02 C 152.92 436.00 141.45 424.63 123.75 413.25 C 106.05 401.87 105.23 372.86 126.69 364.69 C 148.16 356.53 160.49 377.96 178.70 386.31 C 196.90 394.65 217.20 404.61 238.00 406.00
C 238.00 362.67 238.00 319.33 238.00 276.00
C 181.33 265.56 115.34 233.35 116.00 167.00 C 116.66 100.65 176.27 58.95 238.00 57.00
C 240.27 37.55 229.78 8.44 253.00 0.00
L 0.00 0.00
L 0.00 512.00 Z"/>
</g>
<g fill="#5A797E" fill-opacity="1.00" stroke="None">
<path d="
M 262.00 512.00 
L 263.00 512.00
C 286.18 504.20 275.76 474.99 278.00 456.00
C 344.36 455.95 401.89 408.63 402.00 340.00 C 402.11 271.37 337.86 235.54 278.00 224.00
C 278.00 186.00 278.00 148.00 278.00 110.00
C 294.39 113.28 312.83 117.72 327.08 126.92 C 341.32 136.13 357.01 149.45 373.70 138.70 C 390.38 127.94 389.25 105.84 374.75 95.25 C 360.25 84.66 349.36 77.01 332.77 70.23 C 316.18 63.45 296.24 59.53 278.00 58.00
C 275.69 38.30 286.83 5.62 261.00 0.00
L 253.00 0.00
C 229.78 8.44 240.27 37.55 238.00 57.00
C 176.27 58.95 116.66 100.65 116.00 167.00 C 115.34 233.35 181.33 265.56 238.00 276.00
C 238.00 319.33 238.00 362.67 238.00 406.00
C 217.20 404.61 196.90 394.65 178.70 386.31 C 160.49 377.96 148.16 356.53 126.69 364.69 C 105.23 372.86 106.05 401.87 123.75 413.25 C 141.45 424.63 152.92 436.00 172.98 443.02 C 193.03 450.05 215.79 456.27 238.00 456.00
C 238.87 468.40 236.74 483.69 238.22 495.78 C 239.71 507.86 252.71 511.43 262.00 512.00
M 237.00 109.00 
C 237.00 143.67 237.00 178.33 237.00 213.00
C 210.82 206.43 175.10 193.70 176.00 161.00 C 176.90 128.30 207.10 109.81 237.00 109.00
M 279.00 406.00 
C 279.00 367.00 279.00 328.00 279.00 289.00
C 307.79 295.87 343.59 312.37 343.00 347.00 C 342.41 381.63 310.68 403.46 279.00 406.00 Z"/>
</g>
<g fill="#5A797E" fill-opacity="0.00" stroke="None">
<path d="
M 263.00 512.00 
L 512.00 512.00
L 512.00 0.00
L 261.00 0.00
C 286.83 5.62 275.69 38.30 278.00 58.00
C 296.24 59.53 316.18 63.45 332.77 70.23 C 349.36 77.01 360.25 84.66 374.75 95.25 C 389.25 105.84 390.38 127.94 373.70 138.70 C 357.01 149.45 341.32 136.13 327.08 126.92 C 312.83 117.72 294.39 113.28 278.00 110.00
C 278.00 148.00 278.00 186.00 278.00 224.00
C 337.86 235.54 402.11 271.37 402.00 340.00 C 401.89 408.63 344.36 455.95 278.00 456.00
C 275.76 474.99 286.18 504.20 263.00 512.00 Z"/>
</g>
<g fill="#5A797E" fill-opacity="0.00" stroke="None">
<path d="
M 237.00 109.00 
C 207.10 109.81 176.90 128.30 176.00 161.00 C 175.10 193.70 210.82 206.43 237.00 213.00
C 237.00 178.33 237.00 143.67 237.00 109.00 Z"/>
</g>
<g fill="#5A797E" fill-opacity="0.00" stroke="None">
<path d="
M 279.00 406.00 
C 310.68 403.46 342.41 381.63 343.00 347.00 C 343.59 312.37 307.79 295.87 279.00 289.00
C 279.00 328.00 279.00 367.00 279.00 406.00 Z"/>
</g>
</svg>