<svg xmlns="http://www.w3.org/2000/svg" xmlns:v="https://svgstorm.com"
viewBox = "0 0 512 512"
width="512"
height="512">
<g fill="None" fill-opacity="0.0" stroke="#5A797E" stroke-opacity="0.00" stroke-width="0.3"><path d="
M 0.00 512.00 
L 120.00 512.00
C 90.64 507.29 62.56 492.51 50.08 462.92 C 37.59 433.34 42.72 387.71 48.33 357.33 C 53.94 326.95 64.81 297.62 85.75 275.75 C 106.69 253.88 144.44 237.34 171.70 254.30 C 198.96 271.27 225.26 287.33 259.00 287.00 C 292.74 286.67 315.17 266.52 343.08 252.08 C 370.99 237.65 408.51 256.26 428.25 278.75 C 447.99 301.24 458.80 331.62 463.93 362.07 C 469.06 392.53 474.12 438.29 459.23 467.23 C 444.34 496.17 414.54 510.39 384.00 512.00
L 512.00 512.00
L 512.00 0.00
L 257.00 0.00
C 349.41 0.49 405.44 111.79 357.08 188.08 C 308.73 264.38 196.37 264.53 147.70 188.30 C 99.03 112.08 154.94 1.18 247.00 0.00
L 0.00 0.00
L 0.00 512.00 Z"/>
</g>
<g fill="None" fill-opacity="0.0" stroke="#5A797E" stroke-opacity="1.00" stroke-width="0.3"><path d="
M 257.00 0.00 
L 247.00 0.00
C 154.94 1.18 99.03 112.08 147.70 188.30 C 196.37 264.53 308.73 264.38 357.08 188.08 C 405.44 111.79 349.41 0.49 257.00 0.00 Z"/>
</g>
<g fill="None" fill-opacity="0.0" stroke="#5A797E" stroke-opacity="1.00" stroke-width="0.3"><path d="
M 120.00 512.00 
L 384.00 512.00
C 414.54 510.39 444.34 496.17 459.23 467.23 C 474.12 438.29 469.06 392.53 463.93 362.07 C 458.80 331.62 447.99 301.24 428.25 278.75 C 408.51 256.26 370.99 237.65 343.08 252.08 C 315.17 266.52 292.74 286.67 259.00 287.00 C 225.26 287.33 198.96 271.27 171.70 254.30 C 144.44 237.34 106.69 253.88 85.75 275.75 C 64.81 297.62 53.94 326.95 48.33 357.33 C 42.72 387.71 37.59 433.34 50.08 462.92 C 62.56 492.51 90.64 507.29 120.00 512.00 Z"/>
</g>
<g fill="#5A797E" fill-opacity="0.00" stroke="None">
<path d="
M 0.00 512.00 
L 120.00 512.00
C 90.64 507.29 62.56 492.51 50.08 462.92 C 37.59 433.34 42.72 387.71 48.33 357.33 C 53.94 326.95 64.81 297.62 85.75 275.75 C 106.69 253.88 144.44 237.34 171.70 254.30 C 198.96 271.27 225.26 287.33 259.00 287.00 C 292.74 286.67 315.17 266.52 343.08 252.08 C 370.99 237.65 408.51 256.26 428.25 278.75 C 447.99 301.24 458.80 331.62 463.93 362.07 C 469.06 392.53 474.12 438.29 459.23 467.23 C 444.34 496.17 414.54 510.39 384.00 512.00
L 512.00 512.00
L 512.00 0.00
L 257.00 0.00
C 349.41 0.49 405.44 111.79 357.08 188.08 C 308.73 264.38 196.37 264.53 147.70 188.30 C 99.03 112.08 154.94 1.18 247.00 0.00
L 0.00 0.00
L 0.00 512.00 Z"/>
</g>
<g fill="#5A797E" fill-opacity="1.00" stroke="None">
<path d="
M 257.00 0.00 
L 247.00 0.00
C 154.94 1.18 99.03 112.08 147.70 188.30 C 196.37 264.53 308.73 264.38 357.08 188.08 C 405.44 111.79 349.41 0.49 257.00 0.00 Z"/>
</g>
<g fill="#5A797E" fill-opacity="1.00" stroke="None">
<path d="
M 120.00 512.00 
L 384.00 512.00
C 414.54 510.39 444.34 496.17 459.23 467.23 C 474.12 438.29 469.06 392.53 463.93 362.07 C 458.80 331.62 447.99 301.24 428.25 278.75 C 408.51 256.26 370.99 237.65 343.08 252.08 C 315.17 266.52 292.74 286.67 259.00 287.00 C 225.26 287.33 198.96 271.27 171.70 254.30 C 144.44 237.34 106.69 253.88 85.75 275.75 C 64.81 297.62 53.94 326.95 48.33 357.33 C 42.72 387.71 37.59 433.34 50.08 462.92 C 62.56 492.51 90.64 507.29 120.00 512.00 Z"/>
</g>
</svg>